# xmcd
#
# Track frame offsets: 
#        150
#        10731
#        21433
#        33089
#        46858
#        58142
#        73121
#        86295
#        98858
#        110568
#        122380
#        134946
#        148688
#        162294
#        174518
#        189823
#        202931
#        216429
#        230708
#        244539
#        259422
#        271994
#        286584
#        299468
#        314577
#        329673
#
# Disc length: 4593 seconds
#
# Revision: 0
# Processed by: cddbd v1.5.2PL0 Copyright (c) Steve Scherf et al.
# Submitted via: ExactAudioCopy v0.99pb4
#
DISCID=8711ef1a
DTITLE=Huambaly - Los 100 Exitos inolvidables
DYEAR=2006
DGENRE=Latin
TTITLE0=Que me Digan Feo
TTITLE1=Rapsodia Húngara
TTITLE2=Ritmo de Chunga
TTITLE3=Rock del Mono
TTITLE4=Romanza en Fa
TTITLE5=Sabrosito Así
TTITLE6=Saca la Botella
TTITLE7=Serenata en Cha Cha Cha
TTITLE8=Serenata en Jazz
TTITLE9=Silbando Cha Cha Cha
TTITLE10=Sixto, el Caramelero
TTITLE11=Solo Estoy
TTITLE12=Sólo quiero un Cha Cha Cha
TTITLE13=Sombras al Atardecer
TTITLE14=Somos
TTITLE15=Suavecito
TTITLE16=Swingbaly
TTITLE17=Tengo Una Esperancita
TTITLE18=Todo en Ti Habla de Amor
TTITLE19=Triana
TTITLE20=Tristeza
TTITLE21=Ven Morena
TTITLE22=Verano (Summetime)
TTITLE23=Virgen de la Macarena
TTITLE24=Yo Bailo mi Cha Cha Cha
TTITLE25=Data
EXTD=
EXTT0=
EXTT1=
EXTT2=
EXTT3=
EXTT4=
EXTT5=
EXTT6=
EXTT7=
EXTT8=
EXTT9=
EXTT10=
EXTT11=
EXTT12=
EXTT13=
EXTT14=
EXTT15=
EXTT16=
EXTT17=
EXTT18=
EXTT19=
EXTT20=
EXTT21=
EXTT22=
EXTT23=
EXTT24=
EXTT25=
PLAYORDER=
